<?xml version="1.0" encoding="UTF-8"?>
<svg width="45px" height="31px" viewBox="0 0 45 31" version="1.1" xmlns="http://www.w3.org/2000/svg" xmlns:xlink="http://www.w3.org/1999/xlink">
    <!-- Generator: Sketch 53.2 (72643) - https://sketchapp.com -->
    <title>brugge (1)</title>
    <desc>Created with Sketch.</desc>
    <g id="Page-1" stroke="none" stroke-width="1" fill="none" fill-rule="evenodd">
        <g id="Language" transform="translate(-165.000000, -40.000000)" fill-rule="nonzero">
            <g id="brugge-(1)" transform="translate(165.000000, 40.000000)">
                <g id="Group">
                    <path d="M1.73945455,3.88642105 C1.73945455,3.33413158 1.73945455,2.06802632 1.60118182,1.60792105 C1.41627273,1.00994737 0.747,1.03197368 0.216,1.03197368 L0.216,0.641210526 C1.00063636,0.664052632 1.76318182,0.687710526 2.54781818,0.709736842 C3.195,0.686894737 3.84136364,0.664052632 4.48772727,0.641210526 C6.19609091,0.594710526 8.505,1.05563158 8.505,3.33494737 C8.505,4.90044737 7.30472727,5.56776316 6.05781818,5.95934211 L6.05781818,5.98218421 C6.98154545,6.07436842 7.81281818,6.21223684 8.43627273,6.67315789 C9.198,7.22544737 9.68236364,8.05428947 9.68236364,9.04384211 C9.68236364,10.1720789 9.01309091,11.0237632 8.08936364,11.5303684 C7.21227273,12.0133158 6.03409091,11.9676316 5.08827273,11.9676316 C4.37236364,11.9447895 3.67936364,11.9211316 2.94054545,11.8991053 C2.01681818,11.9219474 1.09309091,11.9447895 0.193090909,11.9676316 L0.193090909,11.5768684 C0.724090909,11.5768684 1.39336364,11.5997105 1.57827273,11.0009211 C1.71654545,10.5408158 1.71654545,9.27389474 1.71654545,8.72160526 L1.71654545,3.88723684 L1.73945455,3.88723684 L1.73945455,3.88642105 Z M3.42490909,5.797 L3.95590909,5.797 C4.67181818,5.797 5.27154545,5.81984211 5.895,5.42907895 C6.588,4.96897368 6.72627273,4.23231579 6.72627273,3.40347368 C6.72627273,1.88447368 5.94163636,1.12415789 4.48690909,1.12415789 C4.27909091,1.12415789 3.65563636,1.10131579 3.51736364,1.21634211 C3.402,1.30852632 3.42490909,1.79228947 3.42490909,1.93015789 L3.42490909,5.797 L3.42490909,5.797 Z M3.42490909,8.62860526 C3.42490909,9.20373684 3.42490909,10.2626316 3.60981818,10.7920789 C3.88636364,11.5287368 4.69472727,11.5058947 5.31818182,11.5058947 C6.91036364,11.5058947 7.62627273,10.5163421 7.62627273,8.8815 C7.62627273,7.91478947 7.30309091,7.08594737 6.44890909,6.603 C5.71009091,6.18857895 4.74054545,6.23426316 3.90927273,6.23426316 L3.40118182,6.23426316 L3.40118182,8.62860526 L3.42490909,8.62860526 L3.42490909,8.62860526 Z" id="Shape" fill="#A53220"></path>
                    <path d="M25.9592727,10.5620263 C26.4894545,11.2073158 26.721,11.4373684 27.5514545,11.5752368 L27.5514545,11.966 C27.0670909,11.9431579 26.5819091,11.9195 26.0738182,11.8974737 C25.6581818,11.9203158 25.2662727,11.9431579 24.8506364,11.966 L24.0880909,10.9764474 L21.3864545,7.45468421 C20.8554545,6.80939474 20.925,6.69436842 20.0470909,6.69436842 L20.0470909,8.71997368 C20.0470909,9.27226316 20.0470909,10.5383684 20.1853636,10.9992895 C20.3702727,11.5972632 21.0395455,11.5752368 21.5705455,11.5752368 L21.5705455,11.966 C20.8317273,11.9431579 20.0470909,11.9195 19.2616364,11.8974737 C18.4532727,11.9203158 17.6228182,11.9431579 16.8144545,11.966 L16.8144545,11.5752368 C17.3454545,11.5752368 18.0147273,11.5752368 18.1996364,10.9992895 C18.3379091,10.5391842 18.3379091,9.27226316 18.3379091,8.71997368 L18.3379091,3.88560526 C18.3379091,3.33331579 18.3379091,2.06721053 18.1996364,1.60710526 C18.0147273,1.00913158 17.3454545,1.03115789 16.8144545,1.03115789 L16.8144545,0.640394737 C17.7381818,0.663236842 18.6848182,0.686894737 19.6314545,0.708921053 C20.3244545,0.686078947 21.0166364,0.663236842 21.7096364,0.640394737 C23.58,0.640394737 25.4503636,1.07765789 25.4503636,3.472 C25.4503636,5.31405263 24.111,6.25792105 22.4950909,6.41863158 L25.9592727,10.5620263 Z M20.0708182,6.23426316 C22.1023636,6.23426316 23.6029091,6.18857895 23.6029091,3.70205263 C23.6029091,2.20589474 22.7953636,1.12334211 21.3177273,1.12334211 C21.1328182,1.12334211 20.394,1.07765789 20.2557273,1.14618421 C20.0479091,1.23836842 20.0708182,1.58426316 20.0708182,1.76781579 L20.0708182,6.23426316 Z" id="Shape" fill="#A7BECD"></path>
                    <path d="M43.3669091,7.43102632 C43.3669091,10.5391842 42.2132727,12.1503684 39.1189091,12.1503684 C36.2102727,12.1503684 34.7784545,11.0686316 34.7784545,7.98413158 L34.7784545,3.88642105 C34.7784545,3.33413158 34.7784545,2.06802632 34.6172727,1.60792105 C34.4094545,1.03197368 33.7401818,1.03197368 33.2083636,1.03197368 L33.2083636,0.641210526 C33.9709091,0.664052632 34.7555455,0.687710526 35.5172727,0.709736842 C36.3485455,0.686894737 37.1560909,0.664052632 37.9881818,0.641210526 L37.9881818,1.03197368 C37.4571818,1.03197368 36.7870909,1.00913158 36.5792727,1.60792105 C36.441,2.06802632 36.441,3.33494737 36.441,3.88642105 L36.441,8.09997368 C36.441,10.2871053 37.2485455,11.5303684 39.4887273,11.5303684 C41.7518182,11.5303684 42.8596364,10.2871053 42.8596364,8.00778947 L42.8596364,4.27881579 C42.8596364,3.68084211 42.8596364,2.36823684 42.6976364,1.83878947 C42.4669091,1.12497368 41.8205455,1.05644737 41.1741818,1.05644737 L41.1741818,0.665684211 C41.8205455,0.688526316 42.4210909,0.711368421 43.0674545,0.734210526 C43.6671818,0.711368421 44.2677273,0.688526316 44.8911818,0.665684211 L44.8911818,1.05644737 C44.3601818,1.07928947 43.8054545,1.05644737 43.5747273,1.67807895 C43.344,2.29971053 43.344,3.6115 43.344,4.30247368 L43.344,7.43265789 L43.3669091,7.43265789 L43.3669091,7.43102632 Z" id="Path" fill="#A53220"></path>
                    <path d="M9.75027273,22.3257105 L9.40418182,22.3257105 C9.28881818,20.4151316 8.08854545,19.0111579 6.21818182,19.0111579 C3.03218182,19.0111579 2.36290909,22.0956579 2.36290909,24.7893947 C2.36290909,27.3681053 3.30954545,29.8766579 6.07990909,29.8766579 C7.71872727,29.8766579 8.80445455,29.0714737 8.80445455,27.2987632 C8.80445455,26.1476842 8.38881818,25.9404737 7.39636364,25.8482895 L7.39636364,25.4575263 L11.6680909,25.4575263 L11.6680909,25.8482895 C10.791,25.8262632 10.6519091,26.2855526 10.6519091,27.1600789 L10.6519091,28.9784737 C9.45163636,28.9784737 9.35836364,29.1171579 8.343,29.6922895 C7.51172727,30.1295526 6.70418182,30.3367632 5.78045455,30.3367632 C2.59445455,30.3367632 0.309272727,28.1496316 0.309272727,24.7657368 C0.309272727,21.2668158 2.61818182,18.6195789 6.01118182,18.6195789 C7.21227273,18.6195789 8.43545455,18.9189737 9.405,19.7013158 L9.75109091,18.941 L9.91227273,18.941 L9.75027273,22.3257105 Z" id="Path" fill="#A7BECD"></path>
                    <path d="M26.8592727,22.3257105 L26.5123636,22.3257105 C26.397,20.4151316 25.1967273,19.0111579 23.3255455,19.0111579 C20.1395455,19.0111579 19.4702727,22.0956579 19.4702727,24.7893947 C19.4702727,27.3681053 20.4169091,29.8766579 23.1872727,29.8766579 C24.8269091,29.8766579 25.9118182,29.0714737 25.9118182,27.2987632 C25.9118182,26.1476842 25.4961818,25.9404737 24.5029091,25.8482895 L24.5029091,25.4575263 L28.7746364,25.4575263 L28.7746364,25.8482895 C27.8975455,25.8262632 27.7584545,26.2855526 27.7584545,27.1600789 L27.7584545,28.9784737 C26.5581818,28.9784737 26.4657273,29.1171579 25.4503636,29.6922895 C24.6190909,30.1295526 23.8107273,30.3367632 22.8878182,30.3367632 C19.701,30.3367632 17.4158182,28.1496316 17.4158182,24.7657368 C17.4158182,21.2668158 19.7247273,18.6195789 23.1185455,18.6195789 C24.3196364,18.6195789 25.5428182,18.9189737 26.5123636,19.7013158 L26.8592727,18.941 L27.0441818,18.941 L26.8592727,22.3257105 Z" id="Path" fill="#A53220"></path>
                    <path d="M36.0016364,22.1421579 C36.0016364,21.5890526 36.0016364,20.3237632 35.8404545,19.8628421 C35.6326364,19.2877105 34.9633636,19.2877105 34.4315455,19.2877105 L34.4315455,18.8276053 L42.5356364,18.8276053 L42.5356364,21.4055 L42.1666364,21.4055 C41.8663636,19.4027368 41.0121818,19.2877105 39.2809091,19.2877105 L38.1027273,19.2877105 C37.8482727,19.2877105 37.7337273,19.2648684 37.6870909,19.3570526 C37.6641818,19.4255789 37.6641818,19.6107632 37.6641818,20.0015263 L37.6641818,24.0535526 C39.9035455,24.1449211 40.2267273,23.1782105 40.3191818,21.9586053 L40.6881818,21.9586053 C40.6652727,22.7181053 40.6652727,23.5241053 40.6194545,24.2836053 C40.6423636,24.9745789 40.6652727,25.7112368 40.6881818,26.4022105 L40.3191818,26.4022105 C40.0884545,24.6066579 39.2342727,24.5144737 37.6641818,24.5144737 L37.6641818,27.3232368 C37.6641818,27.8290263 37.6641818,28.6350263 37.9644545,29.0494474 C38.3800909,29.6474211 39.3954545,29.6939211 40.0418182,29.6710789 C41.7280909,29.6482368 42.8588182,29.4173684 43.0666364,27.3697368 L43.4356364,27.3697368 L43.2973636,30.132 L34.4315455,30.132 L34.4315455,29.7412368 C34.9625455,29.7412368 35.6326364,29.7412368 35.8404545,29.1652895 C36.0016364,28.7051842 36.0016364,27.4390789 36.0016364,26.8867895 L36.0016364,22.1421579 L36.0016364,22.1421579 Z" id="Path" fill="#A7BECD"></path>
                </g>
            </g>
        </g>
    </g>
</svg>