<?xml version="1.0" ?><svg height="60px" version="1.1" viewBox="0 0 60 60" width="60px" xmlns="http://www.w3.org/2000/svg" xmlns:sketch="http://www.bohemiancoding.com/sketch/ns" xmlns:xlink="http://www.w3.org/1999/xlink"><title/><defs/><g fill="none" fill-rule="evenodd" id="black" stroke="none" stroke-width="1"><g id="behance"><path d="M30,60 C46.5685433,60 60,46.5685433 60,30 C60,13.4314567 46.5685433,0 30,0 C13.4314567,0 0,13.4314567 0,30 C0,46.5685433 13.4314567,60 30,60 Z" fill="#000000"/><path d="M35.423091,19.8620192 L35.423091,22.1697115 L44.6538602,22.1697115 L44.6538602,19.8620192 L35.423091,19.8620192 Z M12.1153846,18.6608699 L22.7675034,18.7788462 C22.7675034,18.7788462 28.6170466,18.4703274 29.4233025,23.1146711 C30.2295586,27.7590147 26.4808824,28.8562946 26.4808824,28.8562946 C26.4808824,28.8562946 31.1104642,29.9078218 30.4658208,35.3325942 C29.8211774,40.7573666 23.4993619,40.8133524 23.4993619,40.8133524 L12.1153846,40.8133519 L12.1153846,18.6608699 Z M16.9615525,27.4774461 L21.3695837,27.5049514 C21.6516893,27.5049514 22.3933893,27.4803467 23.0034696,27.336314 C23.2646051,27.2746631 23.7728004,27.0992632 24.1236635,26.782913 C24.2693523,26.6515549 24.5377436,26.2814743 24.6926203,25.8428777 C24.8431477,25.4165979 24.8822726,24.9224763 24.8822726,24.7329064 C24.8822726,24.3858127 24.8190558,24.0645214 24.6926204,23.7690227 C24.5661849,23.4735241 24.3765346,23.2178981 24.1236637,23.0021372 C23.8707928,22.7863762 23.5492118,22.6175224 23.1589111,22.4955706 C22.7686104,22.3736187 22.3041046,22.3126437 21.7653796,22.3126437 L16.9615525,22.2851384 L16.9615525,27.4774461 Z M16.9615525,36.7931713 L21.7775823,36.8235718 C22.085799,36.8235718 22.8961493,36.7963772 23.5626975,36.6371843 C23.8480031,36.5690442 24.403236,36.3751824 24.7865743,36.0255343 C24.9457478,35.88035 25.2389808,35.4713161 25.4081926,34.9865544 C25.5726525,34.5154061 25.6153987,33.9692752 25.6153987,33.7597518 C25.6153987,33.3761244 25.5463307,33.0210151 25.4081927,32.6944134 C25.2700546,32.3678116 25.0628506,32.0852794 24.7865745,31.8468083 C24.5102984,31.6083372 24.1589525,31.4217105 23.7325263,31.2869225 C23.3061002,31.1521344 22.7986006,31.0847414 22.2100123,31.0847414 L16.9615525,31.054341 L16.9615525,36.7931713 Z M36.4409618,33.8425717 C36.4478888,33.9715799 36.4409618,37.1532913 39.0477765,37.8840146 C42.0741904,38.7323569 43.4230089,36.2185003 43.5277016,35.92719 L47.4917991,35.92719 C47.3892504,36.404656 45.7778324,42.9046671 37.0105169,40.7862084 C31.6287911,39.4858138 31.9055364,33.1135742 31.9055364,32.5678709 C31.9055364,32.0652391 31.9271709,29.3919629 34.0958158,26.9267578 C36.2644605,24.4615525 39.3520177,24.4615524 39.9772696,24.4615525 C40.6025216,24.4615527 43.818071,24.4615525 45.7778318,26.6370568 C48.3134961,29.4518638 47.8105721,33.9621338 47.8105721,33.9621338 L36.4409618,33.8425717 Z M43.3846295,31.054341 C43.3538948,30.5556423 43.2540087,30.0960641 43.0849681,29.6755926 C42.9159275,29.2551212 42.6828598,28.890881 42.3857581,28.5828612 C42.0886565,28.2748414 41.732652,28.0328295 41.3177342,27.8568182 C40.9028163,27.6808069 40.4392422,27.5928025 39.9269979,27.5928025 C39.4659781,27.5928025 39.0382605,27.685696 38.6438325,27.8714857 C38.2494044,28.0572754 37.9036447,28.3090656 37.606543,28.6268638 C37.3094413,28.944662 37.0712513,29.3113468 36.8919658,29.726929 C36.7126803,30.1425113 36.6076718,30.5849775 36.5769372,31.054341 L43.3846295,31.054341 Z" fill="#FFFFFF"/></g></g></svg>