<?xml version="1.0" encoding="UTF-8"?>
<svg width="73px" height="50px" viewBox="0 0 73 50" version="1.1" xmlns="http://www.w3.org/2000/svg" xmlns:xlink="http://www.w3.org/1999/xlink">
    <!-- Generator: Sketch 53.2 (72643) - https://sketchapp.com -->
    <title>Group 16</title>
    <desc>Created with Sketch.</desc>
    <defs>
        <polygon id="path-1" points="0 0.856470588 15.436 0.856470588 15.436 19.8302844 0 19.8302844"></polygon>
        <polygon id="path-3" points="0.194588235 0.379058824 19.2145882 0.379058824 19.2145882 20 0.194588235 20"></polygon>
        <polygon id="path-5" points="0.605764706 0.379058824 19.6269412 0.379058824 19.6269412 20 0.605764706 20"></polygon>
    </defs>
    <g id="Page-1" stroke="none" stroke-width="1" fill="none" fill-rule="evenodd">
        <g id="Desktop-HD" transform="translate(-789.000000, -1289.000000)">
            <g id="Group-16" transform="translate(789.000000, 1289.000000)">
                <g id="Group-3">
                    <mask id="mask-2" fill="white">
                        <use xlink:href="#path-1"></use>
                    </mask>
                    <g id="Clip-2"></g>
                    <path d="M5.25771429,14.2365882 C5.25771429,15.2001176 5.25771429,16.9730588 5.55828571,17.8601176 C6.00742857,19.0930588 7.32285714,19.0554118 8.33657143,19.0554118 C10.9274286,19.0554118 12.0908571,17.3977647 12.0908571,14.6601176 C12.0908571,13.0412941 11.5662857,11.6530588 10.1765714,10.8448235 C8.97428571,10.1507059 7.39714286,10.2271765 6.04514286,10.2271765 L5.21885714,10.2271765 L5.21885714,14.2365882 L5.25771429,14.2365882 Z M5.25771429,9.49541176 L6.12171429,9.49541176 C7.28514286,9.49541176 8.26114286,9.53305882 9.276,8.87894118 C10.4028571,8.10835294 10.628,6.87423529 10.628,5.48717647 C10.628,2.94247059 9.35142857,1.66952941 6.98571429,1.66952941 C6.64742857,1.66952941 5.63257143,1.63188235 5.40742857,1.82482353 C5.22,1.97894118 5.25771429,2.78952941 5.25771429,3.01894118 L5.25771429,9.49541176 Z M2.516,6.29541176 C2.516,5.37070588 2.516,3.25070588 2.28971429,2.48011765 C1.99028571,1.47894118 0.9,1.51541176 0.0382857143,1.51541176 L0.0382857143,0.861294118 C1.31371429,0.900117647 2.55485714,0.938941176 3.83028571,0.976588235 C4.884,0.937764706 5.93542857,0.900117647 6.98685714,0.861294118 C9.76514286,0.783647059 13.5205714,1.55541176 13.5205714,5.37188235 C13.5205714,7.99305882 11.5685714,9.11070588 9.54,9.76717647 L9.54,9.80482353 C11.0428571,9.95894118 12.3948571,10.1907059 13.4097143,10.9624706 C14.6485714,11.8871765 15.436,13.2754118 15.436,14.9318824 C15.436,16.8212941 14.348,18.2471765 12.8451429,19.0954118 C11.4188571,19.9048235 9.50228571,19.8283529 7.96285714,19.8283529 C6.79942857,19.7895294 5.67142857,19.7507059 4.47028571,19.7130588 C2.96628571,19.7507059 1.46457143,19.7895294 -0.000571428571,19.8283529 L-0.000571428571,19.1730588 C0.863428571,19.1730588 1.95257143,19.2118824 2.25314286,18.2083529 C2.47828571,17.4389412 2.47828571,15.3165882 2.47828571,14.3918824 L2.47828571,6.29658824 L2.516,6.29658824 L2.516,6.29541176 Z" id="Fill-1" fill="#1D1D1F" mask="url(#mask-2)"></path>
                </g>
                <path d="M32.4601845,10.3839092 C35.8663221,10.3839092 38.3808807,10.307301 38.3808807,6.13628187 C38.3808807,3.62589169 37.0276124,1.81086781 34.5495649,1.81086781 C34.2409867,1.81086781 33.001963,1.73308107 32.7699405,1.84858259 C32.4213178,2.00297748 32.4601845,2.58284226 32.4601845,2.89163203 L32.4601845,10.3839092 Z M42.3311523,17.6440047 C43.2203756,18.7271261 43.6090427,19.112524 45,19.3447057 L45,20 C44.1885101,19.9611066 43.3758424,19.9210347 42.5231303,19.8844985 C41.8270627,19.9233918 41.1698619,19.9611066 40.4726166,20 L39.1947262,18.339371 L34.6649872,12.4311147 C33.7745861,11.3491719 33.8923641,11.1558836 32.42014,11.1558836 L32.42014,14.5537498 C32.42014,15.4801191 32.42014,17.6039328 32.6521625,18.3782644 C32.9619185,19.3812419 34.0843421,19.3447057 34.9747432,19.3447057 L34.9747432,20 C33.7357194,19.9611066 32.42014,19.9210347 31.1033828,19.8844985 C29.7477589,19.9233918 28.3568017,19.9611066 27,20 L27,19.3447057 C27.8904011,19.3447057 29.0128247,19.3447057 29.3225806,18.3782644 C29.5546032,17.6051113 29.5546032,15.4801191 29.5546032,14.5537498 L29.5546032,6.44389306 C29.5546032,5.51752373 29.5546032,3.39371007 29.3225806,2.62173562 C29.0128247,1.61875814 27.8904011,1.65529434 27,1.65529434 L27,1 C28.5499575,1.03771478 30.1364261,1.07778674 31.7228947,1.11432293 C32.884185,1.07660815 34.0454754,1.03771478 35.2067657,1 C38.342014,1 41.4784401,1.73308107 41.4784401,5.74970535 C41.4784401,8.8399603 39.2324151,10.4239811 36.5235229,10.6938776 L42.3311523,17.6440047 Z" id="Fill-4" fill="#1D1D1F"></path>
                <path d="M70.5217391,12.2095593 C70.5217391,17.3405567 68.6444765,20 63.6125444,20 C58.8822539,20 56.5536713,18.2150531 56.5536713,13.1223294 L56.5536713,6.35832011 C56.5536713,5.44554999 56.5536713,3.35557319 56.29202,2.59589794 C55.9538156,1.64601392 54.8649348,1.64601392 54,1.64601392 L54,1 C55.2408443,1.03827372 56.5159661,1.07770724 57.7556678,1.11366134 C59.1073426,1.07538762 60.4201696,1.03827372 61.7741295,1 L61.7741295,1.64601392 C60.9103374,1.64601392 59.8203139,1.6077402 59.4821096,2.59589794 C59.2581634,3.35557319 59.2581634,5.44786961 59.2581634,6.35832011 L59.2581634,13.313698 C59.2581634,16.9241851 60.5709904,18.977048 64.2135426,18.977048 C67.8949426,18.977048 69.6956522,16.9241851 69.6956522,13.1617629 L69.6956522,7.00549383 C69.6956522,6.01849591 69.6956522,3.85081187 69.4328583,2.97747528 C69.0580913,1.79910878 68.0069156,1.68660725 66.95574,1.68660725 L66.95574,1.04059333 C68.0069156,1.07886705 68.9826809,1.11714076 70.0338565,1.15425467 C71.0096217,1.11714076 71.9865296,1.07886705 73,1.04059333 L73,1.68660725 C72.1362078,1.72372116 71.2347104,1.68660725 70.8599435,2.7130387 C70.4840339,3.73831034 70.4840339,5.90367476 70.4840339,7.04492736 L70.4840339,12.2118789 L70.5217391,12.2118789 L70.5217391,12.2095593 Z" id="Fill-6" fill="#1D1D1F"></path>
                <g id="Group-10" transform="translate(0.000000, 30.000000)">
                    <mask id="mask-4" fill="white">
                        <use xlink:href="#path-3"></use>
                    </mask>
                    <g id="Clip-9"></g>
                    <path d="M16.004,6.58494118 L15.4251765,6.58494118 C15.2322353,3.38611765 13.2216471,1.03435294 10.0898824,1.03435294 C4.75341176,1.03435294 3.63341176,6.20023529 3.63341176,10.7108235 C3.63341176,15.0284706 5.21811765,19.2296471 9.85694118,19.2296471 C12.6016471,19.2296471 14.4204706,17.8814118 14.4204706,14.9131765 C14.4204706,12.9849412 13.7251765,12.6378824 12.0616471,12.4837647 L12.0616471,11.8296471 L19.2145882,11.8296471 L19.2145882,12.4837647 C17.7463529,12.4472941 17.5134118,13.2155294 17.5134118,14.6802353 L17.5134118,17.7249412 C15.504,17.7249412 15.3475294,17.9578824 13.6475294,18.9202353 C12.2545882,19.6531765 10.9028235,20.0002353 9.35694118,20.0002353 C4.02047059,20.0002353 0.194588235,16.3378824 0.194588235,10.6708235 C0.194588235,4.812 4.06164706,0.379058824 9.74282353,0.379058824 C11.7545882,0.379058824 13.8028235,0.880235294 15.4263529,2.19082353 L16.0051765,0.916705882 L16.2745882,0.916705882 L16.004,6.58494118 Z" id="Fill-8" fill="#1D1D1F" mask="url(#mask-4)"></path>
                </g>
                <g id="Group-13" transform="translate(28.000000, 30.000000)">
                    <mask id="mask-6" fill="white">
                        <use xlink:href="#path-5"></use>
                    </mask>
                    <g id="Clip-12"></g>
                    <path d="M16.4187059,6.58494118 L15.8387059,6.58494118 C15.6445882,3.38611765 13.6351765,1.03435294 10.5022353,1.03435294 C5.16694118,1.03435294 4.04458824,6.20023529 4.04458824,10.7108235 C4.04458824,15.0284706 5.63047059,19.2296471 10.2692941,19.2296471 C13.0151765,19.2296471 14.8316471,17.8814118 14.8316471,14.9131765 C14.8316471,12.9849412 14.1363529,12.6378824 12.4728235,12.4837647 L12.4728235,11.8296471 L19.6269412,11.8296471 L19.6269412,12.4837647 C18.1575294,12.4472941 17.9245882,13.2155294 17.9245882,14.6802353 L17.9245882,17.7249412 C15.914,17.7249412 15.7598824,17.9578824 14.0598824,18.9202353 C12.6681176,19.6531765 11.314,20.0002353 9.76929412,20.0002353 C4.43282353,20.0002353 0.605764706,16.3378824 0.605764706,10.6708235 C0.605764706,4.812 4.47164706,0.379058824 10.1551765,0.379058824 C12.1669412,0.379058824 14.214,0.880235294 15.8387059,2.19082353 L16.4187059,0.916705882 L16.7292941,0.916705882 L16.4187059,6.58494118 Z" id="Fill-11" fill="#1D1D1F" mask="url(#mask-6)"></path>
                </g>
                <path d="M58.6158708,36.5709403 C58.6158708,35.641663 58.6158708,33.5150705 58.3478464,32.740476 C58.0014045,31.7734137 56.8848315,31.7734137 56,31.7734137 L56,31 L69.5007022,31 L69.5007022,35.3334783 L68.8850655,35.3334783 C68.38647,31.9670623 66.9632491,31.7734137 64.0781835,31.7734137 L62.1154026,31.7734137 C61.6917135,31.7734137 61.5009363,31.7356286 61.4225187,31.8903114 C61.3850655,32.0048474 61.3850655,32.3165745 61.3850655,32.9730905 L61.3850655,39.7838543 C65.116339,39.9373563 65.6547285,38.3125971 65.8092228,36.2627556 L66.4225187,36.2627556 C66.3850655,37.5391834 66.3850655,38.893543 66.3078184,40.1699708 C66.3464419,41.3318625 66.3850655,42.5693245 66.4225187,43.7300354 L65.8092228,43.7300354 C65.4229869,40.7131316 64.0009363,40.5584488 61.3850655,40.5584488 L61.3850655,45.2792244 C61.3850655,46.1293891 61.3850655,47.4837487 61.8848315,48.1804114 C62.5777154,49.1852588 64.2689607,49.2631906 65.3457397,49.2242247 C68.1547285,49.1864396 70.0390918,48.7979616 70.3855337,45.3571562 L71,45.3571562 L70.7694288,50 L56,50 L56,49.3423032 C56.8848315,49.3423032 58.0014045,49.3423032 58.3478464,48.3752408 C58.6158708,47.6018271 58.6158708,45.4740538 58.6158708,44.5447766 L58.6158708,36.5709403 Z" id="Fill-14" fill="#1D1D1F"></path>
            </g>
        </g>
    </g>
</svg>